<svg xmlns="http://www.w3.org/2000/svg" viewBox="0 0 1200 800"><defs><linearGradient id="g" x1="0" y1="0" x2="1" y2="1"><stop stop-color="#0d3158"/><stop offset="1" stop-color="#6ea8ff"/></linearGradient><linearGradient id="gold" x1="0" x2="1"><stop stop-color="#d9b876"/><stop offset="1" stop-color="#f2dcac"/></linearGradient><filter id="blur"><feGaussianBlur stdDeviation="28"/></filter></defs><circle cx="650" cy="390" r="280" fill="#6ea8ff" opacity=".12" filter="url(#blur)"/><path d="M250 510C330 190 700 95 955 300" fill="none" stroke="#d9b876" stroke-width="3" opacity=".5"/><path d="M260 530C480 720 870 690 980 320" fill="none" stroke="#6ea8ff" stroke-width="3" opacity=".55"/><g fill="none" stroke="#dbeaff" opacity=".45"><circle cx="600" cy="390" r="230"/><circle cx="600" cy="390" r="160"/><circle cx="600" cy="390" r="85"/></g><g fill="#fff"><circle cx="367" cy="340" r="10"/><circle cx="600" cy="160" r="12"/><circle cx="820" cy="255" r="9"/><circle cx="870" cy="500" r="12"/><circle cx="540" cy="630" r="9"/><circle cx="355" cy="535" r="8"/></g><g stroke="#fff" opacity=".55"><path d="M367 340L600 160 820 255 870 500 540 630 355 535z"/><path d="M367 340L870 500M600 160L540 630M820 255L355 535"/></g><rect x="475" y="280" width="250" height="220" rx="34" fill="#fff" opacity=".95"/><rect x="515" y="325" width="170" height="18" rx="9" fill="#0d3158" opacity=".85"/><rect x="515" y="370" width="110" height="70" rx="16" fill="url(#g)"/><rect x="640" y="370" width="45" height="70" rx="16" fill="url(#gold)"/><circle cx="600" cy="470" r="16" fill="#0d3158"/></svg>