<svg xmlns="http://www.w3.org/2000/svg" viewBox="0 0 1200 800"><defs><linearGradient id="g" x1="0" y1="0" x2="1" y2="1"><stop stop-color="#0d3158"/><stop offset="1" stop-color="#6ea8ff"/></linearGradient><linearGradient id="gold" x1="0" x2="1"><stop stop-color="#d9b876"/><stop offset="1" stop-color="#f2dcac"/></linearGradient><filter id="blur"><feGaussianBlur stdDeviation="28"/></filter></defs><rect width="1200" height="800" fill="#eef3fa"/><path d="M160 190h390a80 80 0 0180 80v150a80 80 0 01-80 80H370l-120 95 30-95h-40a80 80 0 01-80-80z" fill="#fff" stroke="#0d3158" stroke-width="18"/><path d="M600 325h350a80 80 0 0180 80v120a80 80 0 01-80 80H820l-95 80 18-80H680a80 80 0 01-80-80z" fill="url(#g)"/><circle cx="300" cy="350" r="18" fill="#6ea8ff"/><circle cx="390" cy="350" r="18" fill="#6ea8ff"/><circle cx="480" cy="350" r="18" fill="#6ea8ff"/></svg>