<svg xmlns="http://www.w3.org/2000/svg" viewBox="0 0 1200 800"><defs><linearGradient id="g" x1="0" y1="0" x2="1" y2="1"><stop stop-color="#0d3158"/><stop offset="1" stop-color="#6ea8ff"/></linearGradient><linearGradient id="gold" x1="0" x2="1"><stop stop-color="#d9b876"/><stop offset="1" stop-color="#f2dcac"/></linearGradient><filter id="blur"><feGaussianBlur stdDeviation="28"/></filter></defs><rect width="1200" height="800" fill="#eef3fa"/><circle cx="870" cy="170" r="72" fill="#d9b876"/><path d="M110 620c200-190 390-160 520-20 150-230 330-260 470-60" fill="none" stroke="#6ea8ff" stroke-width="34"/><circle cx="470" cy="330" r="65" fill="#0d3158"/><path d="M470 400v170M470 465l-110 110M470 465l120 100" stroke="#0d3158" stroke-width="30" stroke-linecap="round"/><path d="M600 505c70-65 165-40 180 45 45-20 100 10 105 70H650c-10-60-25-90-50-115z" fill="url(#gold)"/><path d="M590 500c50-70 120-95 185-60" fill="none" stroke="#0d3158" stroke-width="12"/></svg>